<svg width="16" height="16" viewBox="0 0 16 16" fill="none" xmlns="http://www.w3.org/2000/svg">
<path fill-rule="evenodd" clip-rule="evenodd" d="M11.354 14.354C11.3076 14.4006 11.2524 14.4375 11.1916 14.4627C11.1309 14.4879 11.0658 14.5009 11 14.5009C10.9342 14.5009 10.8691 14.4879 10.8084 14.4627C10.7476 14.4375 10.6925 14.4006 10.646 14.354L4.64601 8.35401C4.59944 8.30756 4.5625 8.25238 4.53729 8.19164C4.51209 8.13089 4.49911 8.06577 4.49911 8.00001C4.49911 7.93424 4.51209 7.86912 4.53729 7.80837C4.5625 7.74763 4.59944 7.69245 4.64601 7.64601L10.646 1.64601C10.7399 1.55212 10.8672 1.49938 11 1.49938C11.1328 1.49938 11.2601 1.55212 11.354 1.64601C11.4479 1.73989 11.5006 1.86723 11.5006 2.00001C11.5006 2.13278 11.4479 2.26012 11.354 2.35401L5.70701 8.00001L11.354 13.646C11.4006 13.6925 11.4375 13.7476 11.4627 13.8084C11.4879 13.8691 11.5009 13.9342 11.5009 14C11.5009 14.0658 11.4879 14.1309 11.4627 14.1916C11.4375 14.2524 11.4006 14.3076 11.354 14.354Z" fill="black"/>
</svg>
