<svg width="643" height="147" viewBox="0 0 643 147" fill="none" xmlns="http://www.w3.org/2000/svg">
<path d="M46.0625 114V79.1875H23.25V114H1.25V22.875H23.25V57.4375H46.0625V22.875H68.3125V114H46.0625ZM101.132 100.688L96.2575 114H71.945L107.007 22.875H125.195L160.257 114H135.695L131.07 100.688H101.132ZM125.195 83.125L116.257 53.6875L107.007 83.125H125.195ZM248.57 80.1875C246.82 86.1042 244.383 91.2917 241.258 95.75C238.174 100.208 234.591 103.917 230.508 106.875C226.466 109.792 222.174 111.958 217.633 113.375C213.133 114.792 208.508 115.5 203.758 115.5C196.258 115.5 189.008 113.771 182.008 110.312C175.049 106.854 169.278 101.833 164.695 95.25C160.153 88.6667 157.549 81 156.883 72.25C156.883 71.8333 156.841 71.1667 156.758 70.25C156.674 69.2917 156.633 68.6042 156.633 68.1875C156.633 59.7292 158.674 51.9167 162.758 44.75C166.883 37.5833 172.508 31.8958 179.633 27.6875C186.799 23.4375 194.674 21.3125 203.258 21.3125L203.758 21.0625C209.716 21.0625 215.487 22.25 221.07 24.625C226.653 26.9583 231.716 30.2917 236.258 34.625C239.549 37.875 242.112 41.2708 243.945 44.8125C245.82 48.3542 247.445 52.5625 248.82 57.4375H225.008C222.299 52.9792 219.278 49.5625 215.945 47.1875C212.612 44.7708 208.549 43.5625 203.758 43.5625C199.758 43.5625 196.008 44.5208 192.508 46.4375C189.008 48.3125 186.112 50.8958 183.82 54.1875C181.57 57.4792 180.195 61.1042 179.695 65.0625C179.695 65.5625 179.653 66.1875 179.57 66.9375C179.487 67.6875 179.445 68.1875 179.445 68.4375C179.445 72.9375 180.57 77.1042 182.82 80.9375C185.112 84.7292 188.112 87.7292 191.82 89.9375C195.57 92.1458 199.466 93.25 203.508 93.25C207.383 93.25 211.174 92.1667 214.883 90C218.591 87.7917 221.799 84.5208 224.508 80.1875H248.57ZM272.695 114H250.695V22.875H272.695V65.625L299.82 22.875H324.695L294.445 69.1875L323.633 114H296.758L272.695 74.3125V114Z" fill="black"/>
<path d="M641.933 22H628.232C624.441 21.9986 620.897 23.8603 618.778 26.9666L603.633 49.1616C602.708 50.5217 601.158 51.3376 599.5 51.3376C597.842 51.3376 596.292 50.5217 595.367 49.1616L580.222 26.9666C578.103 23.8603 574.559 21.9986 570.768 22H557.067C556.672 22 556.31 22.2142 556.125 22.5586C555.939 22.9029 555.962 23.3202 556.183 23.643L583.234 63.2728C585.182 66.1304 585.182 69.8696 583.234 72.7272L556.183 112.357C555.963 112.68 555.94 113.097 556.125 113.441C556.311 113.785 556.673 114 557.067 114H570.768C574.559 114.001 578.103 112.14 580.222 109.033L595.367 86.8385C596.292 85.4783 597.842 84.6624 599.5 84.6624C601.158 84.6624 602.708 85.4783 603.633 86.8385L618.778 109.033C620.897 112.14 624.441 114.001 628.232 114H641.933C642.328 114 642.69 113.786 642.875 113.441C643.061 113.097 643.038 112.68 642.817 112.357L615.766 72.7272C613.818 69.8696 613.818 66.1304 615.766 63.2728L642.817 23.643C643.038 23.3202 643.061 22.9029 642.875 22.5586C642.69 22.2142 642.328 22 641.933 22Z" fill="black"/>
<path d="M456.981 55.8946C456.467 33.737 440.803 22.0093 421.549 22.0093C410.973 22.0093 401.481 25.5482 394.991 32.4111C388.501 25.5389 379.01 22 368.443 22C349.179 22 333.506 33.7464 333.01 55.9319C333.002 55.9813 332.999 56.0313 333 56.0813V106.596C333 111.238 336.769 115 341.417 115H349.366C350.14 115 350.768 114.373 350.768 113.599V56.0813H350.778C351.114 45.1566 358.895 39.3675 368.443 39.3675C377.99 39.3675 385.771 45.1566 386.107 56.0813H386.117V106.596C386.117 111.238 389.885 115 394.533 115H402.481C403.256 115 403.884 114.373 403.884 113.599V56.0813H403.894C404.23 45.1566 412.011 39.3675 421.558 39.3675C431.106 39.3675 438.886 45.1566 439.223 56.0813H439.232V106.596C439.232 111.238 443 115 447.649 115H455.597C455.969 115 456.326 114.852 456.589 114.59C456.852 114.327 457 113.971 457 113.599V56.0813C457 56.0187 456.993 55.9562 456.981 55.8946Z" fill="black"/>
<path d="M547.585 23.488H539.567C535.568 23.4868 532.11 26.2372 531.266 30.091C524.116 24.7435 515.192 22 505.514 22C482.036 22 463 38.1076 463 68.5C463 98.8924 482.036 115 505.514 115C515.126 115 523.993 112.303 531.115 107.021C531.519 111.327 535.181 114.622 539.567 114.628H547.585C548.367 114.628 549 114.003 549 113.233V24.883C549 24.1126 548.367 23.488 547.585 23.488ZM505.514 97.6927C491.497 97.6927 480.13 87.5836 480.13 68.5C480.13 49.4164 491.497 39.3073 505.514 39.3073C519.532 39.3073 530.898 49.4164 530.898 68.5C530.898 87.5836 519.532 97.6927 505.514 97.6927Z" fill="black"/>
</svg>
